PathFileType	4	(X/Y/Z)	./resultDataOpenSim/trcMotMarkerGrf/sub09/qtm-12-01.trc
DataRate	CameraRate	NumFrames	NumMarkers	Units	OrigDataRate	OrigDataStartFrame	OrigNumFrames
250.000000	250.000000	13	24	m	250.000000	129	513
Frame#	Time	L.Toe.Tip			R.Toe.Tip			L.Ankle.Lat			R.Ankle.Lat			L.Ankle.Med			R.Ankle.Med			L.Heel			R.Heel			L.Knee.Lat			R.Knee.Lat			L.Knee.Med			R.Knee.Med			L.Thigh.Upper			R.Thigh.Upper			L.ASIS			R.ASIS			V.Sacral			L.Acromium			R.Acromium			C7			L.Elbow			R.Elbow			L.Wrist.Lat			R.Wrist.Lat
		X1	Y1	Z1	X2	Y2	Z2	X3	Y3	Z3	X4	Y4	Z4	X5	Y5	Z5	X6	Y6	Z6	X7	Y7	Z7	X8	Y8	Z8	X9	Y9	Z9	X10	Y10	Z10	X11	Y11	Z11	X12	Y12	Z12	X13	Y13	Z13	X14	Y14	Z14	X15	Y15	Z15	X16	Y16	Z16	X17	Y17	Z17	X18	Y18	Z18	X19	Y19	Z19	X20	Y20	Z20	X21	Y21	Z21	X22	Y22	Z22	X23	Y23	Z23	X24	Y24	Z24

129	0.512	-0.14421256	0.09724247	-0.04616067	-0.63174018	0.039294855	0.064777102	-0.29960971	0.093858269	-0.076730632	-0.77992644	0.059775234	0.094372008	-0.27386895	0.114534	0.018408168	-0.76239343	0.096263278	0.0028160004	-0.35155026	0.037888378	-0.019635835	-0.84680554	0.036037831	0.043441799	-0.36729339	0.50751448	-0.10903228	-0.63288873	0.49185798	0.16399443	-0.37075326	0.4994789	0.016885707	-0.65102437	0.48743783	0.034927847	-0.54233273	0.89073512	-0.14431966	-0.59510603	0.89374601	0.22575717	-0.47563501	0.97701478	-0.076198175	-0.4852636	0.97930953	0.16519153	-0.64619664	1.0317699	0.031959047	-0.48823904	1.4286123	-0.13100667	-0.50510307	1.4454219	0.19816596	-0.56128936	1.484571	0.031702985	-0.66599171	1.1138979	-0.19094288	-0.64877328	1.1098193	0.29124931	-0.57494992	0.86810955	-0.23440665	-0.48178995	0.88928618	0.2992655
130	0.516	-0.1290448	0.099790259	-0.044594417	-0.63182311	0.039313043	0.065136511	-0.28470827	0.09395634	-0.075469965	-0.77986032	0.059881147	0.094490376	-0.25913863	0.11553985	0.019416182	-0.76214714	0.096429169	0.0029704581	-0.33548292	0.037430511	-0.018069351	-0.84679631	0.036363694	0.043300746	-0.36079843	0.50581132	-0.10889514	-0.63098516	0.49153207	0.16453473	-0.36416173	0.49782629	0.017334034	-0.64893205	0.4871433	0.035523104	-0.5363175	0.88892992	-0.14411194	-0.58971284	0.89279127	0.22577302	-0.46970404	0.97538689	-0.076185093	-0.47944407	0.97810718	0.16532186	-0.63982883	1.0302075	0.032655998	-0.48258546	1.4271715	-0.13123319	-0.49945957	1.4440884	0.19797581	-0.5556098	1.4831887	0.031428395	-0.66029228	1.1126053	-0.19138187	-0.64270833	1.1082167	0.29131617	-0.56992394	0.86674827	-0.23488914	-0.47453397	0.88862659	0.29912226
131	0.52	-0.11428482	0.10221715	-0.04312297	-0.63190304	0.039297231	0.065435417	-0.27015746	0.094158217	-0.074358346	-0.77956736	0.059717324	0.094658865	-0.24478077	0.11653806	0.020311519	-0.76186533	0.096623442	0.0031410395	-0.31986322	0.037114577	-0.016693396	-0.8467664	0.036743979	0.043170092	-0.35427142	0.50412327	-0.10871262	-0.62895169	0.49115075	0.1650055	-0.35758824	0.49618025	0.017739686	-0.64667914	0.48678724	0.036184366	-0.53032689	0.88704839	-0.14394478	-0.58427813	0.89176634	0.22576267	-0.4637902	0.97370464	-0.076228997	-0.4736031	0.97682363	0.16541699	-0.63355476	1.0286217	0.033176326	-0.47692511	1.4256718	-0.13147474	-0.49378314	1.442699	0.1977802	-0.54992387	1.4817764	0.031155921	-0.65477469	1.1112186	-0.19176804	-0.63663706	1.1065605	0.29137531	-0.56477841	0.86529236	-0.2353092	-0.46728282	0.88790499	0.29897239
132	0.524	-0.09995805	0.10453407	-0.041785283	-0.63196343	0.039221059	0.065655601	-0.25596084	0.094436308	-0.073412407	-0.77927634	0.059583941	0.094810668	-0.23083199	0.11749839	0.021107622	-0.76154808	0.096845252	0.0033140711	-0.30471108	0.036902071	-0.015567559	-0.84671889	0.037156456	0.043034625	-0.3477232	0.50246203	-0.1084839	-0.62675447	0.490705	0.16547936	-0.35101679	0.49456454	0.018124357	-0.64434587	0.48632095	0.036822043	-0.52437517	0.88510104	-0.14383031	-0.57879849	0.89067365	0.22571924	-0.45788177	0.97199599	-0.076321489	-0.46774507	0.97546736	0.16546331	-0.62749685	1.0270264	0.033366636	-0.47125703	1.4241183	-0.13173398	-0.48807481	1.4412585	0.19756953	-0.54425529	1.4803409	0.030910281	-0.64935122	1.1097504	-0.19211083	-0.63056183	1.1048534	0.29142596	-0.55953856	0.86375959	-0.23570158	-0.46004303	0.88712135	0.29881454
133	0.528	-0.086083834	0.10674514	-0.040578409	-0.63199795	0.039101814	0.065828265	-0.24213114	0.094762984	-0.072644316	-0.77909763	0.059618319	0.094906674	-0.21733307	0.11838297	0.021816522	-0.76119658	0.09708744	0.003472754	-0.29004179	0.036754493	-0.014746337	-0.84666173	0.037586556	0.042884091	-0.3411368	0.50081744	-0.10820382	-0.6243586	0.49018513	0.16596495	-0.34436285	0.49299368	0.018560978	-0.64199962	0.48571753	0.03732182	-0.51844474	0.88309903	-0.14378259	-0.57327272	0.88951569	0.2256452	-0.45196881	0.9702603	-0.076451139	-0.46187567	0.97404157	0.16545559	-0.62159384	1.0254023	0.033298948	-0.46558172	1.4225116	-0.13200777	-0.48234222	1.4397659	0.19734113	-0.53860086	1.4788808	0.030687189	-0.64390446	1.1082185	-0.19245008	-0.62448249	1.1030977	0.29146666	-0.55424007	0.86217012	-0.23610938	-0.45281651	0.88627565	0.2986478
134	0.532	-0.072665541	0.10885384	-0.039469227	-0.632005	0.038973043	0.065981704	-0.22867346	0.095117759	-0.07205249	-0.77899746	0.059781764	0.094951479	-0.20431322	0.11915419	0.022456522	-0.76081182	0.097346991	0.003606042	-0.27586317	0.03662868	-0.01425348	-0.84659998	0.038042845	0.042717126	-0.33449322	0.4991838	-0.10787649	-0.62175123	0.48957848	0.16641669	-0.33760482	0.49148073	0.019083193	-0.63959243	0.48500792	0.037630484	-0.51251397	0.88104735	-0.1438018	-0.56770555	0.88829628	0.22555072	-0.44604164	0.96848613	-0.076604391	-0.4559951	0.97254687	0.1653991	-0.61573139	1.0237278	0.033107346	-0.45990053	1.4208492	-0.13228937	-0.47659149	1.4382176	0.19710182	-0.53293195	1.4773778	0.030458551	-0.63839347	1.1066361	-0.19280751	-0.61840008	1.1012991	0.29149714	-0.54890737	0.86053813	-0.23655334	-0.44560176	0.88536864	0.29847126
135	0.536	-0.059690605	0.11086121	-0.038414203	-0.63198439	0.038858133	0.066117826	-0.21558086	0.095484688	-0.071609679	-0.77892878	0.0600209	0.094952421	-0.1917864	0.11978848	0.023050842	-0.76039541	0.097628432	0.003710676	-0.26217523	0.03648324	-0.014074434	-0.846532	0.038549311	0.042535387	-0.32778254	0.49757155	-0.10751562	-0.61892894	0.48888319	0.1667981	-0.33081081	0.49003664	0.019660914	-0.63693886	0.48426877	0.037808318	-0.50657964	0.87895095	-0.14386638	-0.56210947	0.88701889	0.22544828	-0.44009188	0.96666542	-0.076773226	-0.4501028	0.97098696	0.16530074	-0.6098497	1.0219993	0.032866301	-0.45421773	1.4191324	-0.13257423	-0.47082275	1.4366136	0.19685656	-0.52723051	1.4758014	0.030202641	-0.63283407	1.1050053	-0.19318427	-0.6123253	1.0994678	0.29152405	-0.54355486	0.85887117	-0.23703567	-0.4383956	0.8844002	0.29828601
136	0.54	-0.047154488	0.11274881	-0.037387232	-0.63193927	0.038761789	0.066229066	-0.20285093	0.095850733	-0.071270137	-0.77891577	0.060364676	0.09488885	-0.17975323	0.12027983	0.023617499	-0.75994895	0.097936319	0.0037827946	-0.24897839	0.036288762	-0.014157547	-0.84645385	0.039121306	0.042335661	-0.32099972	0.49599438	-0.10713829	-0.61589415	0.48811559	0.16709846	-0.32406357	0.48865196	0.02024125	-0.63385741	0.48355815	0.037961123	-0.50063832	0.8768218	-0.14394351	-0.55649714	0.88568809	0.22534723	-0.43412051	0.96479716	-0.076959183	-0.4442008	0.96937102	0.16516681	-0.60394329	1.0202223	0.032599134	-0.44853986	1.4173699	-0.13286138	-0.46502929	1.4349593	0.19660035	-0.52150169	1.4741402	0.029926964	-0.62724833	1.1033214	-0.19357327	-0.60627918	1.0976155	0.29156084	-0.53818761	0.85716833	-0.23755649	-0.43119243	0.88337147	0.29809524
137	0.544	-0.035077137	0.11447944	-0.036399326	-0.63187163	0.038673914	0.06630728	-0.1904971	0.09619974	-0.070990333	-0.7790027	0.060866629	0.094728359	-0.16819925	0.12063031	0.024160759	-0.75947229	0.098266439	0.0038141594	-0.23628319	0.036028104	-0.014415113	-0.84636546	0.03975311	0.042110007	-0.31414693	0.49445545	-0.10675676	-0.6126469	0.4873014	0.16733085	-0.31739321	0.4872943	0.020792075	-0.63036387	0.48287331	0.038134195	-0.49466656	0.87467026	-0.14400477	-0.55087823	0.88431234	0.22525411	-0.42813553	0.9628866	-0.077166573	-0.43829477	0.96771074	0.16500708	-0.59801431	1.0184008	0.032333095	-0.44286973	1.4155712	-0.1331523	-0.45920107	1.4332622	0.19632803	-0.51575334	1.4724176	0.029655755	-0.6216412	1.1015815	-0.19396618	-0.60026661	1.0957461	0.29161246	-0.53279878	0.85542477	-0.2381196	-0.42399207	0.88228812	0.29790046
138	0.548	-0.023482733	0.11601557	-0.035473829	-0.63177388	0.038578659	0.066338858	-0.17854173	0.096504843	-0.070740714	-0.77911307	0.06145207	0.094478788	-0.15709496	0.12084157	0.024675335	-0.75896468	0.098605911	0.0037987188	-0.22410401	0.035687705	-0.014727498	-0.84627068	0.040430227	0.041854668	-0.30723199	0.49295034	-0.10637531	-0.60916504	0.48645693	0.16753108	-0.31077597	0.4859264	0.021308205	-0.62665369	0.48217824	0.038307838	-0.48863139	0.87249395	-0.14403397	-0.54526396	0.88290383	0.22517567	-0.42213839	0.96093945	-0.077390792	-0.43239172	0.96601838	0.16483806	-0.59203277	1.0165405	0.032145676	-0.43720688	1.4137422	-0.13344808	-0.45332777	1.4315273	0.19604262	-0.50998404	1.4706726	0.029403408	-0.61600683	1.0997877	-0.19435522	-0.59423016	1.0938443	0.29165064	-0.52736539	0.85363823	-0.23871702	-0.41680611	0.88115756	0.29770097
139	0.552	-0.012379324	0.11732097	-0.034615329	-0.63163497	0.038463733	0.06631114	-0.16701892	0.096726273	-0.070503298	-0.77902943	0.061898178	0.094208837	-0.14641437	0.12091788	0.025157991	-0.75842632	0.098943945	0.0037378227	-0.21244167	0.035253009	-0.014963325	-0.84617183	0.041150076	0.041578441	-0.30025737	0.49147961	-0.1059938	-0.60544219	0.48557619	0.16770828	-0.30416202	0.48452169	0.021794484	-0.62286872	0.48144943	0.038453141	-0.48251021	0.87028276	-0.14402496	-0.53966471	0.88147448	0.22511699	-0.41611997	0.95895721	-0.077612752	-0.42649096	0.96430918	0.16468261	-0.58594733	1.0146534	0.032140632	-0.43155136	1.4118882	-0.13375022	-0.4474027	1.429757	0.19574805	-0.50419095	1.4689276	0.029164497	-0.61034289	1.0979446	-0.19473424	-0.58806293	1.0918845	0.2916208	-0.52185526	0.85181142	-0.23932299	-0.40964828	0.87998294	0.29749745
140	0.556	-0.0017707932	0.11835205	-0.03382332	-0.63146155	0.038332153	0.066231346	-0.15599329	0.096814611	-0.070258399	-0.77862549	0.06208048	0.09398899	-0.13615533	0.12087062	0.025614484	-0.75786022	0.099283807	0.0036370905	-0.20128386	0.034713352	-0.015012306	-0.84606726	0.04192565	0.041298486	-0.29321058	0.49005738	-0.10561021	-0.60154194	0.48464013	0.16780818	-0.29749591	0.48307368	0.022252425	-0.6189895	0.48068013	0.038551593	-0.4762964	0.86803161	-0.14397708	-0.53408349	0.88003049	0.22507512	-0.4100692	0.95693959	-0.07780618	-0.42058696	0.96259953	0.16456235	-0.57975567	1.012751	0.032329191	-0.42588871	1.4100146	-0.13407254	-0.44142994	1.4279556	0.19544293	-0.49837772	1.4671768	0.028924138	-0.60465492	1.0960586	-0.19509981	-0.58174209	1.0898729	0.29151224	-0.51625066	0.8499521	-0.23991616	-0.40252305	0.8787627	0.29729253
141	0.56	0.0083340245	0.11907002	-0.033110887	-0.63128341	0.038205275	0.066130431	-0.1455478	0.096724341	-0.069975741	-0.77803769	0.062147804	0.093825495	-0.1263326	0.120709	0.026058097	-0.75728223	0.09964097	0.0034965991	-0.19063461	0.034069657	-0.014823303	-0.84595471	0.042772931	0.041027435	-0.2860658	0.48870884	-0.10522166	-0.59755735	0.48363741	0.16777302	-0.29071349	0.48160055	0.022685707	-0.61495484	0.47986071	0.038594929	-0.46999832	0.86574672	-0.14389553	-0.52851756	0.87857189	0.22503819	-0.40398167	0.95489042	-0.077952928	-0.41468399	0.96089912	0.16449024	-0.57354628	1.010836	0.032563602	-0.4201779	1.4081226	-0.13444354	-0.43542599	1.4261314	0.19512494	-0.49255116	1.4654038	0.028672859	-0.59895046	1.0941396	-0.1954502	-0.57540325	1.0878601	0.29139537	-0.51056128	0.84807069	-0.2404975	-0.39542947	0.87749699	0.29708717
